HIERARCHY
ROOT Hips
{
  OFFSET 267.745 86.9975 -272.335
  CHANNELS 6 Xposition Yposition Zposition Zrotation Xrotation Yrotation
  JOINT LeftUpLeg
  {
    OFFSET 8.64259 1.95398 -2.38835
    CHANNELS 3 Zrotation Xrotation Yrotation
    JOINT LeftLeg
    {
      OFFSET 43.7702 0 0
      CHANNELS 3 Zrotation Xrotation Yrotation
      JOINT LeftFoot
      {
        OFFSET 40.6238 0 0
        CHANNELS 3 Zrotation Xrotation Yrotation
        JOINT LeftToeBase
        {
          OFFSET 12.7242 0 0
          CHANNELS 3 Zrotation Xrotation Yrotation
          End Site
          {
            OFFSET 0 0 0
          }
        }
      }
    }
  }
  JOINT RightUpLeg
  {
    OFFSET -8.2249 1.95398 -2.59336
    CHANNELS 3 Zrotation Xrotation Yrotation
    JOINT RightLeg
    {
      OFFSET 43.5653 0 0
      CHANNELS 3 Zrotation Xrotation Yrotation
      JOINT RightFoot
      {
        OFFSET 40.6238 0 0
        CHANNELS 3 Zrotation Xrotation Yrotation
        JOINT RightToeBase
        {
          OFFSET 12.7242 0 0
          CHANNELS 3 Zrotation Xrotation Yrotation
          End Site
          {
            OFFSET 0 0 0
          }
        }
      }
    }
  }
  JOINT Spine
  {
    OFFSET 0.165834 0.87714 6.61349
    CHANNELS 3 Zrotation Xrotation Yrotation
    JOINT Spine1
    {
      OFFSET 7.38963 1.71661e-005 0
      CHANNELS 3 Zrotation Xrotation Yrotation
      JOINT Spine2
      {
        OFFSET 11.9445 1.14441e-005 0
        CHANNELS 3 Zrotation Xrotation Yrotation
        JOINT Spine3
        {
          OFFSET 14.7254 4.19617e-005 0
          CHANNELS 3 Zrotation Xrotation Yrotation
          JOINT Spine4
          {
            OFFSET 10.9679 0 0
            CHANNELS 3 Zrotation Xrotation Yrotation
            JOINT RightShoulder
            {
              OFFSET 2.46616 -1.6653 3.69651
              CHANNELS 3 Zrotation Xrotation Yrotation
              JOINT RightArm
              {
                OFFSET 13.0012 0 0
                CHANNELS 3 Zrotation Xrotation Yrotation
                JOINT RightForeArm
                {
                  OFFSET 28.7848 1.52588e-005 0
                  CHANNELS 3 Zrotation Xrotation Yrotation
                  JOINT RightHand
                  {
                    OFFSET 26.5688 1.52588e-005 0
                    CHANNELS 3 Zrotation Xrotation Yrotation
                    End Site
                    {
                      OFFSET 0 0 0
                    }
                  }
                }
              }
            }
            JOINT LeftShoulder
            {
              OFFSET 2.38034 -1.29275 -3.7523
              CHANNELS 3 Zrotation Xrotation Yrotation
              JOINT LeftArm
              {
                OFFSET 16.3182 6.10352e-005 0
                CHANNELS 3 Zrotation Xrotation Yrotation
                JOINT LeftForeArm
                {
                  OFFSET 27.0901 0 0
                  CHANNELS 3 Zrotation Xrotation Yrotation
                  JOINT LeftHand
                  {
                    OFFSET 24.5451 1.52588e-005 0
                    CHANNELS 3 Zrotation Xrotation Yrotation
                    End Site
                    {
                      OFFSET 0 0 0
                    }
                  }
                }
              }
            }
            JOINT Neck
            {
              OFFSET 5.0226 -0.0266342 0
              CHANNELS 3 Zrotation Xrotation Yrotation
              JOINT Head
              {
                OFFSET 6.69364 2.86102e-005 0
                CHANNELS 3 Zrotation Xrotation Yrotation
                End Site
                {
                  OFFSET 0 0 0
                }
              }
            }
          }
        }
      }
    }
  }
}
MOTION
Frames:	7
Frame Time:	0.0416667
-4.27938 97.108 -5.5789 123.554 -83.3691 123.353 -174.377 1.36778 91.4076 -12.6468 6.76807 2.29695 64.8512 3.33823 -0.411752 28.7173 -0.305937 2.65156 174.482 2.85143 86.2384 -16.0113 -3.33104 -0.629323 66.7827 -0.729518 6.37423 26.0061 1.01452 -2.76012 -0.261517 7.35204 -90.1942 12.1689 -0.611674 -0.319655 0.498091 -0.625141 -0.292435 -22.0375 -0.487328 -0.488715 -2.02489 -0.487324 -0.488716 101.115 -51.2444 -83.7829 29.7942 -13.5294 -7.90408 1.58048 -15.4769 -14.2276 -11.2491 -0.599945 1.05746 -80.5365 -48.6149 92.7057 -37.6453 -0.0766684 -20.2335 -0.956716 44.3684 -0.835467 -2.49398 -0.0872352 -7.46821 14.3321 0.631414 -3.93418 -23.2971 0.639109 6.01776 
-4.29552 97.1002 -5.63402 123.096 -83.0924 122.852 -174.45 1.20552 91.3539 -12.3076 5.19971 2.43279 65.1247 3.18252 -1.75776 27.8699 -0.0544787 1.24521 174.423 2.80932 86.1678 -16.1084 -3.0906 -0.610181 66.6341 -0.381539 6.86519 26.7288 0.89417 -3.47186 -0.281957 7.37578 -90.1781 12.1216 -0.644623 -0.284186 0.450742 -0.656504 -0.255521 -22.0851 -0.529412 -0.464785 -2.07245 -0.529413 -0.46479 101.308 -51.3948 -83.4837 29.604 -13.9791 -7.99903 1.93183 -14.62 -13.7071 -10.4949 -0.387622 -0.910834 -80.7075 -48.1501 92.4164 -37.6627 1.05876 -19.8699 -1.95238 37.3755 -0.511966 1.5174 -0.167313 -6.56897 10.563 -2.12933 1.05567 -18.003 -1.64173 -5.39885 
-4.30682 97.1117 -5.65518 122.952 -83.1481 122.761 -174.424 1.21911 91.3833 -12.2484 5.53895 2.41012 65.1073 3.31509 -1.36086 28.0265 -0.106692 1.54214 174.576 2.93796 86.2804 -16.2934 -2.72586 -0.743638 66.7274 -0.275574 7.22342 26.1651 1.03025 -3.26962 -0.294479 7.39465 -90.187 12.0837 -0.673733 -0.29919 0.41289 -0.68624 -0.271866 -22.123 -0.552693 -0.487767 -2.11033 -0.552692 -0.487772 101.24 -51.4441 -83.5869 29.4331 -14.1203 -8.23241 2.02281 -14.2909 -13.8951 -10.4353 -0.484092 0.222611 -80.6615 -48.4744 92.5051 -37.2808 1.03446 -19.8792 -1.93952 37.2257 -0.638605 1.31182 -0.161805 -6.58516 10.291 -2.23233 -0.633508 -16.6619 -1.79737 -2.24645 
-4.31402 97.1122 -5.72301 122.618 -83.1075 122.468 -174.466 1.24055 91.4026 -12.1366 5.68633 2.45931 64.8927 3.21745 -1.24787 28.3112 -0.122698 1.44402 174.576 3.13999 86.2768 -16.615 -2.4152 -0.732063 66.8227 -0.0207413 7.81208 25.8857 1.13114 -3.46092 -0.311385 7.42186 -90.1866 12.0293 -0.707096 -0.293873 0.358485 -0.719395 -0.266142 -22.1775 -0.585755 -0.493874 -2.16486 -0.585755 -0.493885 101.108 -51.4288 -83.7904 29.5071 -14.042 -8.18085 1.86565 -14.3496 -14.0751 -10.2872 -0.456813 -0.0178429 -80.7028 -48.3774 92.4359 -37.3759 0.922635 -19.8194 -1.82625 37.1971 -0.684351 1.5438 -0.169959 -6.69326 10.7729 -2.1647 0.0999391 -17.2581 -1.73307 -3.55268 
-4.32518 97.11 -5.79172 122.889 -83.2057 122.628 -174.471 1.32264 91.3153 -12.2354 5.48986 2.4032 65.1546 3.1498 -1.58184 27.5845 -0.123425 2.01535 174.467 3.45597 86.0504 -17.011 -2.38786 -0.656614 66.9208 0.246022 8.34642 25.5032 1.22176 -3.31776 -0.291576 7.46503 -90.1808 11.9431 -0.664882 -0.288681 0.272246 -0.676948 -0.259139 -22.2636 -0.547397 -0.475166 -2.25099 -0.547393 -0.475164 101.219 -51.3251 -83.6208 29.5325 -14.0562 -8.27383 1.69513 -14.7632 -14.1528 -10.4932 -0.448614 -0.217778 -80.6997 -48.4237 92.4434 -37.4201 1.00031 -19.8908 -1.7021 37.112 -0.890173 1.72157 -0.177453 -6.80155 11.6443 -1.81171 1.88697 -18.6758 -1.42682 -6.24461 
-4.31034 97.0767 -5.92201 121.263 -83.2685 120.93 -174.521 1.60946 91.2443 -12.2187 5.41905 2.35373 65.0376 2.97821 -1.72848 27.4922 -0.0855779 1.79107 174.424 4.04059 85.8693 -17.5664 -2.23145 -0.596621 66.845 0.765828 8.95012 25.6441 1.17775 -3.28061 -0.276756 7.51033 -90.1765 11.8524 -0.633327 -0.28422 0.181635 -0.645219 -0.25607 -22.3542 -0.518633 -0.46142 -2.34153 -0.518628 -0.46142 101.435 -51.151 -83.2927 29.6986 -14.0146 -8.35701 1.53187 -14.83 -14.4118 -10.488 -0.476552 0.109076 -80.9079 -48.5168 92.1261 -37.3821 0.836991 -20.0897 -1.38554 37.917 -1.20639 0.889825 -0.173578 -7.2784 11.3872 -1.9538 0.903675 -17.6923 -1.53616 -4.95736 
-4.34444 97.0493 -6.08874 116.91 -83.2751 116.648 -174.543 2.30338 91.268 -12.3811 6.05144 2.26217 64.8679 3.04524 -0.902942 27.8871 -0.0583199 1.25062 174.561 4.77407 85.9546 -17.9836 -1.7092 -0.596553 66.7619 1.23213 9.44238 25.5737 1.23703 -3.60448 -0.293478 7.54275 -90.1765 11.7876 -0.66658 -0.281305 0.116769 -0.67832 -0.251698 -22.4191 -0.551225 -0.46864 -2.4065 -0.551225 -0.468639 101.416 -51.1918 -83.3211 29.7537 -14.0951 -8.49232 1.56661 -14.7259 -14.4431 -10.7693 -0.469592 -0.115713 -80.9402 -48.7133 92.0877 -37.0748 0.752777 -20.2989 -1.11578 37.2438 -1.55701 0.807633 -0.16347 -6.99814 11.6928 -1.95385 1.11263 -17.9468 -1.56749 -5.03079 
